<?xml version="1.0" encoding="UTF-8" ?>
<svg version="1.1" width="32" height="32" xmlns="http://www.w3.org/2000/svg" shape-rendering="crispEdges">
<rect x="0" y="0" width="31" height="1" fill="#FB7000" />
<rect x="31" y="0" width="1" height="14" fill="#F9EA00" />
<rect x="0" y="1" width="30" height="1" fill="#FB7000" />
<rect x="30" y="1" width="1" height="11" fill="#F9EA00" />
<rect x="0" y="2" width="29" height="1" fill="#FB7000" />
<rect x="29" y="2" width="1" height="11" fill="#F9EA00" />
<rect x="0" y="3" width="28" height="1" fill="#FB7000" />
<rect x="28" y="3" width="1" height="10" fill="#F9EA00" />
<rect x="0" y="4" width="27" height="1" fill="#FB7000" />
<rect x="27" y="4" width="1" height="10" fill="#F9EA00" />
<rect x="0" y="5" width="26" height="1" fill="#FB7000" />
<rect x="26" y="5" width="1" height="9" fill="#F9EA00" />
<rect x="0" y="6" width="25" height="1" fill="#FB7000" />
<rect x="25" y="6" width="1" height="6" fill="#F9EA00" />
<rect x="0" y="7" width="24" height="1" fill="#FB7000" />
<rect x="24" y="7" width="1" height="3" fill="#F9EA00" />
<rect x="0" y="8" width="22" height="1" fill="#FB7000" />
<rect x="22" y="8" width="2" height="1" fill="#000000" />
<rect x="0" y="9" width="20" height="1" fill="#FB7000" />
<rect x="20" y="9" width="2" height="1" fill="#000000" />
<rect x="22" y="9" width="1" height="7" fill="#4FFF3F" />
<rect x="23" y="9" width="1" height="1" fill="#000000" />
<rect x="0" y="10" width="17" height="1" fill="#FB7000" />
<rect x="17" y="10" width="3" height="1" fill="#000000" />
<rect x="20" y="10" width="2" height="6" fill="#4FFF3F" />
<rect x="23" y="10" width="1" height="5" fill="#4FFF3F" />
<rect x="24" y="10" width="1" height="3" fill="#000000" />
<rect x="0" y="11" width="15" height="1" fill="#FB7000" />
<rect x="15" y="11" width="2" height="1" fill="#000000" />
<rect x="17" y="11" width="3" height="6" fill="#4FFF3F" />
<rect x="0" y="12" width="12" height="1" fill="#FB7000" />
<rect x="12" y="12" width="3" height="1" fill="#000000" />
<rect x="15" y="12" width="2" height="2" fill="#4FFF3F" />
<rect x="25" y="12" width="1" height="6" fill="#000000" />
<rect x="30" y="12" width="1" height="4" fill="#000000" />
<rect x="0" y="13" width="10" height="1" fill="#FB7000" />
<rect x="10" y="13" width="2" height="1" fill="#000000" />
<rect x="12" y="13" width="3" height="3" fill="#4FFF3F" />
<rect x="24" y="13" width="1" height="2" fill="#4FFF3F" />
<rect x="28" y="13" width="2" height="3" fill="#000000" />
<rect x="0" y="14" width="7" height="1" fill="#FB7000" />
<rect x="7" y="14" width="3" height="1" fill="#000000" />
<rect x="10" y="14" width="2" height="8" fill="#4FFF3F" />
<rect x="15" y="14" width="1" height="2" fill="#000000" />
<rect x="16" y="14" width="1" height="2" fill="#4FFF3F" />
<rect x="26" y="14" width="2" height="3" fill="#000000" />
<rect x="31" y="14" width="1" height="1" fill="#000000" />
<rect x="0" y="15" width="5" height="1" fill="#FB7000" />
<rect x="5" y="15" width="3" height="1" fill="#000000" />
<rect x="8" y="15" width="2" height="8" fill="#4FFF3F" />
<rect x="23" y="15" width="2" height="3" fill="#000000" />
<rect x="31" y="15" width="1" height="17" fill="#F9EA00" />
<rect x="0" y="16" width="3" height="1" fill="#FB7000" />
<rect x="3" y="16" width="2" height="1" fill="#000000" />
<rect x="5" y="16" width="3" height="8" fill="#4FFF3F" />
<rect x="12" y="16" width="1" height="1" fill="#000000" />
<rect x="13" y="16" width="3" height="1" fill="#4FFF3F" />
<rect x="16" y="16" width="1" height="2" fill="#000000" />
<rect x="20" y="16" width="1" height="1" fill="#4FFF3F" />
<rect x="21" y="16" width="2" height="3" fill="#000000" />
<rect x="28" y="16" width="3" height="16" fill="#F9EA00" />
<rect x="0" y="17" width="3" height="1" fill="#000000" />
<rect x="3" y="17" width="2" height="8" fill="#4FFF3F" />
<rect x="12" y="17" width="1" height="5" fill="#4FFF3F" />
<rect x="13" y="17" width="1" height="2" fill="#000000" />
<rect x="14" y="17" width="2" height="4" fill="#4FFF3F" />
<rect x="17" y="17" width="1" height="3" fill="#4FFF3F" />
<rect x="18" y="17" width="3" height="3" fill="#000000" />
<rect x="26" y="17" width="2" height="15" fill="#F9EA00" />
<rect x="0" y="18" width="3" height="1" fill="#4FFF3F" />
<rect x="16" y="18" width="1" height="2" fill="#4FFF3F" />
<rect x="23" y="18" width="1" height="1" fill="#000000" />
<rect x="24" y="18" width="2" height="14" fill="#F9EA00" />
<rect x="0" y="19" width="1" height="2" fill="#000000" />
<rect x="1" y="19" width="2" height="2" fill="#4FFF3F" />
<rect x="13" y="19" width="1" height="3" fill="#4FFF3F" />
<rect x="21" y="19" width="3" height="13" fill="#F9EA00" />
<rect x="16" y="20" width="3" height="1" fill="#000000" />
<rect x="19" y="20" width="2" height="12" fill="#F9EA00" />
<rect x="0" y="21" width="1" height="10" fill="#FB7000" />
<rect x="1" y="21" width="1" height="3" fill="#000000" />
<rect x="2" y="21" width="1" height="2" fill="#4FFF3F" />
<rect x="14" y="21" width="2" height="1" fill="#000000" />
<rect x="16" y="21" width="3" height="11" fill="#F9EA00" />
<rect x="10" y="22" width="1" height="1" fill="#4FFF3F" />
<rect x="11" y="22" width="3" height="1" fill="#000000" />
<rect x="14" y="22" width="2" height="10" fill="#F9EA00" />
<rect x="2" y="23" width="1" height="3" fill="#000000" />
<rect x="8" y="23" width="1" height="1" fill="#4FFF3F" />
<rect x="9" y="23" width="2" height="1" fill="#000000" />
<rect x="11" y="23" width="3" height="9" fill="#F9EA00" />
<rect x="1" y="24" width="1" height="6" fill="#FB7000" />
<rect x="5" y="24" width="1" height="1" fill="#4FFF3F" />
<rect x="6" y="24" width="3" height="1" fill="#000000" />
<rect x="9" y="24" width="2" height="8" fill="#F9EA00" />
<rect x="3" y="25" width="1" height="1" fill="#4FFF3F" />
<rect x="4" y="25" width="3" height="1" fill="#000000" />
<rect x="7" y="25" width="2" height="7" fill="#F9EA00" />
<rect x="2" y="26" width="1" height="3" fill="#FB7000" />
<rect x="3" y="26" width="1" height="1" fill="#000000" />
<rect x="4" y="26" width="1" height="1" fill="#FB7000" />
<rect x="5" y="26" width="2" height="6" fill="#F9EA00" />
<rect x="3" y="27" width="1" height="1" fill="#FB7000" />
<rect x="4" y="27" width="1" height="5" fill="#F9EA00" />
<rect x="3" y="28" width="1" height="4" fill="#F9EA00" />
<rect x="2" y="29" width="1" height="3" fill="#F9EA00" />
<rect x="1" y="30" width="1" height="2" fill="#F9EA00" />
<rect x="0" y="31" width="1" height="1" fill="#F9EA00" />
</svg>